<mxfile host="app.diagrams.net" modified="2024-01-16T11:45:28.443Z" agent="Mozilla/5.0 (Windows NT 10.0; Win64; x64) AppleWebKit/537.36 (KHTML, like Gecko) Chrome/120.0.0.0 Safari/537.36" version="22.1.18" etag="-CBmVIc--IyaOouhp5au" type="github">
  <diagram name="หน้า-1" id="QJp_Nfp8s0Mu4hGADreL">
    <mxGraphModel>
      <root>
        <mxCell id="0" />
        <mxCell id="1" parent="0" />
      </root>
    </mxGraphModel>
  </diagram>
</mxfile>
